{
	"asset":{
		"version":"2.0",
		"generator":"Houdini GLTF 2.0 Exporter"
	},
	"accessors":[
		{
			"bufferView":0,
			"componentType":5125,
			"count":213030,
			"type":"SCALAR",
			"min":[0
			],
			"max":[213029
			]
		},
		{
			"bufferView":1,
			"componentType":5126,
			"count":213030,
			"type":"VEC3",
			"min":[-11.3259068,-10.3360596,1.63353252
			],
			"max":[17.4667149,13.553565,21.910099
			]
		},
		{
			"bufferView":2,
			"componentType":5126,
			"count":213030,
			"type":"VEC3",
			"min":[-0.999972224,-0.994365156,-0.999978364
			],
			"max":[0.999999166,0.999995589,0.999993682
			]
		},
		{
			"bufferView":3,
			"componentType":5126,
			"count":213030,
			"type":"VEC2",
			"min":[0.00170699996,0.000703990459
			],
			"max":[0.999755025,0.999752998
			]
		},
		{
			"bufferView":4,
			"componentType":5126,
			"count":213030,
			"type":"VEC4",
			"min":[-0.999998093,-0.999998331,-0.745556533,1
			],
			"max":[0.999998152,0.999980152,0.67777133,1
			]
		},
		{
			"bufferView":5,
			"componentType":5125,
			"count":120078,
			"type":"SCALAR",
			"min":[0
			],
			"max":[120077
			]
		},
		{
			"bufferView":6,
			"componentType":5126,
			"count":120078,
			"type":"VEC3",
			"min":[-11.2397079,-10.3076868,1.70428181
			],
			"max":[17.447094,13.5746527,21.910099
			]
		},
		{
			"bufferView":7,
			"componentType":5126,
			"count":120078,
			"type":"VEC3",
			"min":[-0.99996984,-0.999934435,-0.999910951
			],
			"max":[0.999853134,0.999736667,0.994709909
			]
		},
		{
			"bufferView":8,
			"componentType":5126,
			"count":120078,
			"type":"VEC2",
			"min":[0.00200799992,1.00024498
			],
			"max":[0.99526298,1.99853802
			]
		},
		{
			"bufferView":9,
			"componentType":5126,
			"count":120078,
			"type":"VEC4",
			"min":[-0.999997139,-0.999979734,-0.776440084,1
			],
			"max":[0.999974847,0.999976933,0.732670963,1
			]
		},
		{
			"bufferView":10,
			"componentType":5125,
			"count":192975,
			"type":"SCALAR",
			"min":[0
			],
			"max":[192974
			]
		},
		{
			"bufferView":11,
			"componentType":5126,
			"count":192975,
			"type":"VEC3",
			"min":[-11.4442921,-10.3360596,1.62184811
			],
			"max":[17.4633217,13.4735765,21.910099
			]
		},
		{
			"bufferView":12,
			"componentType":5126,
			"count":192975,
			"type":"VEC3",
			"min":[-0.999964297,-0.999594986,-0.999987543
			],
			"max":[0.999997973,0.999997616,0.999998569
			]
		},
		{
			"bufferView":13,
			"componentType":5126,
			"count":192975,
			"type":"VEC2",
			"min":[1.00107205,0.00138497353
			],
			"max":[1.99880898,0.995085001
			]
		},
		{
			"bufferView":14,
			"componentType":5126,
			"count":192975,
			"type":"VEC4",
			"min":[-0.999997735,-0.999918342,-0.75571245,1
			],
			"max":[0.999998033,0.999997139,0.943529069,1
			]
		},
		{
			"bufferView":15,
			"componentType":5125,
			"count":89784,
			"type":"SCALAR",
			"min":[0
			],
			"max":[89783
			]
		},
		{
			"bufferView":16,
			"componentType":5126,
			"count":89784,
			"type":"VEC3",
			"min":[-11.1989202,-10.3011913,1.6499052
			],
			"max":[17.4686718,13.4029284,21.910099
			]
		},
		{
			"bufferView":17,
			"componentType":5126,
			"count":89784,
			"type":"VEC3",
			"min":[0.0456340648,-0.973798335,-0.222787857
			],
			"max":[0.79939127,-0.57338351,-0.179457426
			]
		},
		{
			"bufferView":18,
			"componentType":5126,
			"count":89784,
			"type":"VEC2",
			"min":[1.00180399,1.00418198
			],
			"max":[1.99909902,1.65803599
			]
		},
		{
			"bufferView":19,
			"componentType":5126,
			"count":89784,
			"type":"VEC4",
			"min":[-0.999973416,-0.999976456,-0.770374954,1
			],
			"max":[0.999992728,0.999968112,0.776545107,1
			]
		},
		{
			"bufferView":20,
			"componentType":5125,
			"count":224988,
			"type":"SCALAR",
			"min":[0
			],
			"max":[224987
			]
		},
		{
			"bufferView":21,
			"componentType":5126,
			"count":224988,
			"type":"VEC3",
			"min":[-11.4442921,-10.3236713,1.66383648
			],
			"max":[17.4686718,13.5746527,21.910099
			]
		},
		{
			"bufferView":22,
			"componentType":5126,
			"count":224988,
			"type":"VEC3",
			"min":[-0.990769863,-0.862362146,-0.998006582
			],
			"max":[0.993607044,0.757151127,0.998484254
			]
		},
		{
			"bufferView":23,
			"componentType":5126,
			"count":224988,
			"type":"VEC2",
			"min":[2.00160599,0.00232601166
			],
			"max":[2.99798298,0.993351996
			]
		},
		{
			"bufferView":24,
			"componentType":5126,
			"count":224988,
			"type":"VEC4",
			"min":[-0.999999344,-0.99999404,-0.959435284,1
			],
			"max":[0.999998152,0.999988854,0.772665739,1
			]
		}
	],
	"buffers":[
		{
			"uri":"scene_data.bin",
			"byteLength":43724460,
			"name":"main_buffer"
		}
	],
	"bufferViews":[
		{
			"buffer":0,
			"byteLength":852120,
			"target":34963
		},
		{
			"buffer":0,
			"byteOffset":852120,
			"byteLength":2556360,
			"target":34962
		},
		{
			"buffer":0,
			"byteOffset":3408480,
			"byteLength":2556360,
			"target":34962
		},
		{
			"buffer":0,
			"byteOffset":5964840,
			"byteLength":1704240,
			"target":34962
		},
		{
			"buffer":0,
			"byteOffset":7669080,
			"byteLength":3408480,
			"target":34962
		},
		{
			"buffer":0,
			"byteOffset":11077560,
			"byteLength":480312,
			"target":34963
		},
		{
			"buffer":0,
			"byteOffset":11557872,
			"byteLength":1440936,
			"target":34962
		},
		{
			"buffer":0,
			"byteOffset":12998808,
			"byteLength":1440936,
			"target":34962
		},
		{
			"buffer":0,
			"byteOffset":14439744,
			"byteLength":960624,
			"target":34962
		},
		{
			"buffer":0,
			"byteOffset":15400368,
			"byteLength":1921248,
			"target":34962
		},
		{
			"buffer":0,
			"byteOffset":17321616,
			"byteLength":771900,
			"target":34963
		},
		{
			"buffer":0,
			"byteOffset":18093516,
			"byteLength":2315700,
			"target":34962
		},
		{
			"buffer":0,
			"byteOffset":20409216,
			"byteLength":2315700,
			"target":34962
		},
		{
			"buffer":0,
			"byteOffset":22724916,
			"byteLength":1543800,
			"target":34962
		},
		{
			"buffer":0,
			"byteOffset":24268716,
			"byteLength":3087600,
			"target":34962
		},
		{
			"buffer":0,
			"byteOffset":27356316,
			"byteLength":359136,
			"target":34963
		},
		{
			"buffer":0,
			"byteOffset":27715452,
			"byteLength":1077408,
			"target":34962
		},
		{
			"buffer":0,
			"byteOffset":28792860,
			"byteLength":1077408,
			"target":34962
		},
		{
			"buffer":0,
			"byteOffset":29870268,
			"byteLength":718272,
			"target":34962
		},
		{
			"buffer":0,
			"byteOffset":30588540,
			"byteLength":1436544,
			"target":34962
		},
		{
			"buffer":0,
			"byteOffset":32025084,
			"byteLength":899952,
			"target":34963
		},
		{
			"buffer":0,
			"byteOffset":32925036,
			"byteLength":2699856,
			"target":34962
		},
		{
			"buffer":0,
			"byteOffset":35624892,
			"byteLength":2699856,
			"target":34962
		},
		{
			"buffer":0,
			"byteOffset":38324748,
			"byteLength":1799904,
			"target":34962
		},
		{
			"buffer":0,
			"byteOffset":40124652,
			"byteLength":3599808,
			"target":34962
		}
	],
	"nodes":[
		{
			"name":"geo1",
			"mesh":0
		}
	],
	"meshes":[
		{
			"primitives":[
				{
					"attributes":{
						"TANGENT":4,
						"TEXCOORD_0":3,
						"NORMAL":2,
						"POSITION":1
					},
					"indices":0
				},
				{
					"attributes":{
						"TANGENT":9,
						"TEXCOORD_0":8,
						"NORMAL":7,
						"POSITION":6
					},
					"indices":5
				},
				{
					"attributes":{
						"TANGENT":14,
						"TEXCOORD_0":13,
						"NORMAL":12,
						"POSITION":11
					},
					"indices":10
				},
				{
					"attributes":{
						"TANGENT":19,
						"TEXCOORD_0":18,
						"NORMAL":17,
						"POSITION":16
					},
					"indices":15
				},
				{
					"attributes":{
						"TANGENT":24,
						"TEXCOORD_0":23,
						"NORMAL":22,
						"POSITION":21
					},
					"indices":20
				}
			]
		}
	],
	"scenes":[
		{
			"nodes":[0
			]
		}
	],
	"scene":0
}
