{
  "accessors": [
    {
      "bufferView": 2,
      "componentType": 5126,
      "count": 6044,
      "max": [
        13.109048843383789,
        -1.7456610202789307,
        9.198387145996094
      ],
      "min": [
        -16.974655151367188,
        -1.7808359861373901,
        -10.240241050720215
      ],
      "type": "VEC3"
    },
    {
      "bufferView": 2,
      "byteOffset": 72528,
      "componentType": 5126,
      "count": 6044,
      "max": [
        0.9883659482002258,
        1.0,
        0.02400028705596924
      ],
      "min": [
        -0.12030427902936935,
        -0.9963288307189941,
        -0.9995132088661194
      ],
      "type": "VEC3"
    },
    {
      "bufferView": 1,
      "componentType": 5126,
      "count": 6044,
      "max": [
        0.5797010064125061,
        0.9690160155296326
      ],
      "min": [
        0.41084301471710205,
        0.7815859913825989
      ],
      "type": "VEC2"
    },
    {
      "bufferView": 0,
      "componentType": 5125,
      "count": 9651,
      "type": "SCALAR"
    },
    {
      "bufferView": 2,
      "byteOffset": 145056,
      "componentType": 5126,
      "count": 65532,
      "max": [
        13.300891876220703,
        -1.7456610202789307,
        9.27457046508789
      ],
      "min": [
        -17.271364212036133,
        -3.034290075302124,
        -10.488040924072266
      ],
      "type": "VEC3"
    },
    {
      "bufferView": 2,
      "byteOffset": 931440,
      "componentType": 5126,
      "count": 65532,
      "max": [
        0.9999994039535522,
        0.9999538660049438,
        0.9999995231628418
      ],
      "min": [
        -0.9999886751174927,
        -0.9999998807907104,
        -0.9999990463256836
      ],
      "type": "VEC3"
    },
    {
      "bufferView": 1,
      "byteOffset": 48352,
      "componentType": 5126,
      "count": 65532,
      "max": [
        0.9951069951057434,
        0.35217300057411194
      ],
      "min": [
        0.00012199999764561653,
        0.000291000003926456
      ],
      "type": "VEC2"
    },
    {
      "bufferView": 0,
      "byteOffset": 38604,
      "componentType": 5125,
      "count": 304806,
      "type": "SCALAR"
    },
    {
      "bufferView": 2,
      "byteOffset": 1717824,
      "componentType": 5126,
      "count": 65532,
      "max": [
        13.289237022399902,
        -1.7757110595703125,
        9.224550247192383
      ],
      "min": [
        -17.26311683654785,
        -3.0833590030670166,
        -10.477701187133789
      ],
      "type": "VEC3"
    },
    {
      "bufferView": 2,
      "byteOffset": 2504208,
      "componentType": 5126,
      "count": 65532,
      "max": [
        0.9999953508377075,
        0.9932805895805359,
        0.999991774559021
      ],
      "min": [
        -0.9999886751174927,
        -1.0,
        -0.9999997615814209
      ],
      "type": "VEC3"
    },
    {
      "bufferView": 1,
      "byteOffset": 572608,
      "componentType": 5126,
      "count": 65532,
      "max": [
        0.999800980091095,
        0.34669798612594604
      ],
      "min": [
        0.0008539999835193157,
        0.000387999985832721
      ],
      "type": "VEC2"
    },
    {
      "bufferView": 0,
      "byteOffset": 1257828,
      "componentType": 5125,
      "count": 283977,
      "type": "SCALAR"
    },
    {
      "bufferView": 2,
      "byteOffset": 3290592,
      "componentType": 5126,
      "count": 65534,
      "max": [
        5.377161979675293,
        -1.7495640516281128,
        9.27457046508789
      ],
      "min": [
        -15.504019737243652,
        -2.9145920276641846,
        -6.639416217803955
      ],
      "type": "VEC3"
    },
    {
      "bufferView": 2,
      "byteOffset": 4077000,
      "componentType": 5126,
      "count": 65534,
      "max": [
        0.9957282543182373,
        0.9859892129898071,
        0.9999996423721313
      ],
      "min": [
        -0.9957675933837891,
        -1.0,
        -0.9998524188995361
      ],
      "type": "VEC3"
    },
    {
      "bufferView": 1,
      "byteOffset": 1096864,
      "componentType": 5126,
      "count": 65534,
      "max": [
        0.9989079833030701,
        0.34484899044036865
      ],
      "min": [
        0.00012199999764561653,
        0.00036899998667649925
      ],
      "type": "VEC2"
    },
    {
      "bufferView": 0,
      "byteOffset": 2393736,
      "componentType": 5125,
      "count": 303711,
      "type": "SCALAR"
    },
    {
      "bufferView": 2,
      "byteOffset": 4863408,
      "componentType": 5126,
      "count": 65532,
      "max": [
        13.277544975280762,
        -1.7739959955215454,
        9.167974472045898
      ],
      "min": [
        -17.083354949951172,
        -3.0138509273529053,
        -6.644941806793213
      ],
      "type": "VEC3"
    },
    {
      "bufferView": 2,
      "byteOffset": 5649792,
      "componentType": 5126,
      "count": 65532,
      "max": [
        0.9999960660934448,
        0.9923012852668762,
        0.9999902248382568
      ],
      "min": [
        -0.9999964237213135,
        -1.0,
        -0.999995231628418
      ],
      "type": "VEC3"
    },
    {
      "bufferView": 1,
      "byteOffset": 1621136,
      "componentType": 5126,
      "count": 65532,
      "max": [
        0.9997429847717285,
        0.35217300057411194
      ],
      "min": [
        0.00012199999764561653,
        0.00036700000055134296
      ],
      "type": "VEC2"
    },
    {
      "bufferView": 0,
      "byteOffset": 3608580,
      "componentType": 5125,
      "count": 298395,
      "type": "SCALAR"
    },
    {
      "bufferView": 2,
      "byteOffset": 6436176,
      "componentType": 5126,
      "count": 56986,
      "max": [
        13.278281211853027,
        -1.7457540035247803,
        9.434268951416016
      ],
      "min": [
        -17.271364212036133,
        -3.0464539527893066,
        -6.616611957550049
      ],
      "type": "VEC3"
    },
    {
      "bufferView": 2,
      "byteOffset": 7120008,
      "componentType": 5126,
      "count": 56986,
      "max": [
        0.9999960660934448,
        0.9982632398605347,
        0.9999978542327881
      ],
      "min": [
        -0.9999979734420776,
        -1.0,
        -0.9996744990348816
      ],
      "type": "VEC3"
    },
    {
      "bufferView": 1,
      "byteOffset": 2145392,
      "componentType": 5126,
      "count": 56986,
      "max": [
        0.9997029900550842,
        0.3497309982776642
      ],
      "min": [
        0.00012199999764561653,
        0.0003969999961555004
      ],
      "type": "VEC2"
    },
    {
      "bufferView": 0,
      "byteOffset": 4802160,
      "componentType": 5125,
      "count": 202590,
      "type": "SCALAR"
    }
  ],
  "asset": {
    "extras": {
      "author": "noe-3d.at (https://sketchfab.com/www.noe-3d.at)",
      "license": "CC-BY-NC-4.0 (http://creativecommons.org/licenses/by-nc/4.0/)",
      "source": "https://sketchfab.com/3d-models/abendmahl-jesu-9e0b51a476f94c0d9e24f7e1ec677f34",
      "title": "Abendmahl Jesu"
    },
    "generator": "Sketchfab-10.80.0",
    "version": "2.0"
  },
  "bufferViews": [
    {
      "buffer": 0,
      "byteLength": 5612520,
      "name": "floatBufferViews",
      "target": 34963
    },
    {
      "buffer": 0,
      "byteLength": 2601280,
      "byteOffset": 5612520,
      "byteStride": 8,
      "name": "floatBufferViews",
      "target": 34962
    },
    {
      "buffer": 0,
      "byteLength": 7803840,
      "byteOffset": 8213800,
      "byteStride": 12,
      "name": "floatBufferViews",
      "target": 34962
    }
  ],
  "buffers": [
    {
      "byteLength": 16017640,
      "uri": "scene.bin"
    }
  ],
  "images": [
    {
      "uri": "textures/Abendmahl_O_Material_u1_v1_baseColor.png"
    }
  ],
  "materials": [
    {
      "doubleSided": true,
      "name": "Abendmahl_O_Material_u1_v1",
      "pbrMetallicRoughness": {
        "baseColorTexture": {
          "index": 0
        },
        "metallicFactor": 0.0
      }
    }
  ],
  "meshes": [
    {
      "name": "Object_0",
      "primitives": [
        {
          "attributes": {
            "NORMAL": 1,
            "POSITION": 0,
            "TEXCOORD_0": 2
          },
          "indices": 3,
          "material": 0,
          "mode": 4
        }
      ]
    },
    {
      "name": "Object_1",
      "primitives": [
        {
          "attributes": {
            "NORMAL": 5,
            "POSITION": 4,
            "TEXCOORD_0": 6
          },
          "indices": 7,
          "material": 0,
          "mode": 4
        }
      ]
    },
    {
      "name": "Object_2",
      "primitives": [
        {
          "attributes": {
            "NORMAL": 9,
            "POSITION": 8,
            "TEXCOORD_0": 10
          },
          "indices": 11,
          "material": 0,
          "mode": 4
        }
      ]
    },
    {
      "name": "Object_3",
      "primitives": [
        {
          "attributes": {
            "NORMAL": 13,
            "POSITION": 12,
            "TEXCOORD_0": 14
          },
          "indices": 15,
          "material": 0,
          "mode": 4
        }
      ]
    },
    {
      "name": "Object_4",
      "primitives": [
        {
          "attributes": {
            "NORMAL": 17,
            "POSITION": 16,
            "TEXCOORD_0": 18
          },
          "indices": 19,
          "material": 0,
          "mode": 4
        }
      ]
    },
    {
      "name": "Object_5",
      "primitives": [
        {
          "attributes": {
            "NORMAL": 21,
            "POSITION": 20,
            "TEXCOORD_0": 22
          },
          "indices": 23,
          "material": 0,
          "mode": 4
        }
      ]
    }
  ],
  "nodes": [
    {
      "children": [
        1
      ],
      "matrix": [
        -0.024166082567561364,
        -6.0314422590736824e-05,
        -2.6045193649749135e-06,
        0.0,
        3.08779907165965e-06,
        -0.00019366517826916054,
        -0.024165381085343607,
        0.0,
        6.0291612265156187e-05,
        -0.024165306183751567,
        0.00019367226781287825,
        0.0,
        -3.968892812728882,
        -1.0779367685317993,
        0.004085672553628444,
        1.0
      ],
      "name": "Sketchfab_model"
    },
    {
      "children": [
        2,
        3,
        4,
        5,
        6,
        7
      ],
      "name": "Abendmahl_C.obj.cleaner.materialmerger.gles"
    },
    {
      "mesh": 0,
      "name": "Object_2"
    },
    {
      "mesh": 1,
      "name": "Object_3"
    },
    {
      "mesh": 2,
      "name": "Object_4"
    },
    {
      "mesh": 3,
      "name": "Object_5"
    },
    {
      "mesh": 4,
      "name": "Object_6"
    },
    {
      "mesh": 5,
      "name": "Object_7"
    }
  ],
  "samplers": [
    {
      "magFilter": 9729,
      "minFilter": 9987,
      "wrapS": 10497,
      "wrapT": 10497
    }
  ],
  "scene": 0,
  "scenes": [
    {
      "name": "Sketchfab_Scene",
      "nodes": [
        0
      ]
    }
  ],
  "textures": [
    {
      "sampler": 0,
      "source": 0
    }
  ]
}
